<?xml version="1.0" encoding="UTF-8" standalone="no"?>
<svg
   version="1.0"
   width="1200pt"
   height="1200pt"
   viewBox="0 0 1200 1200"
   preserveAspectRatio="xMidYMid"
   id="svg186"
   sodipodi:docname="logo.svg"
   inkscape:export-filename="logo.svg"
   inkscape:export-xdpi="96"
   inkscape:export-ydpi="96"
   xmlns:inkscape="http://www.inkscape.org/namespaces/inkscape"
   xmlns:sodipodi="http://sodipodi.sourceforge.net/DTD/sodipodi-0.dtd"
   xmlns="http://www.w3.org/2000/svg"
   xmlns:svg="http://www.w3.org/2000/svg">
  <defs
     id="defs190" />
  <sodipodi:namedview
     id="namedview188"
     pagecolor="#ffffff"
     bordercolor="#999999"
     borderopacity="1"
     inkscape:showpageshadow="0"
     inkscape:pageopacity="0"
     inkscape:pagecheckerboard="0"
     inkscape:deskcolor="#d1d1d1"
     showgrid="false" />
  <g
     transform="matrix(0.40258768,0,0,-0.38710721,-1664.1806,2760.5196)"
     fill="#000000"
     stroke="none"
     id="g184">
    <path
       d="m 5125,6760 c -5,-23 2,-48 30,-106 35,-72 36,-77 20,-94 -24,-27 -12,-65 35,-112 34,-34 38,-44 37,-83 -2,-36 3,-49 28,-75 33,-35 120,-83 138,-77 7,2 -3,12 -22,21 -38,20 -51,29 -93,68 -25,23 -29,35 -27,67 3,35 -2,45 -44,90 -52,55 -57,74 -27,93 24,15 26,31 6,47 -32,27 -73,151 -50,151 4,0 33,-28 65,-63 61,-67 134,-112 229,-142 86,-27 155,-64 173,-94 14,-25 14,-30 1,-56 -25,-49 -28,-108 -9,-149 22,-47 10,-59 -52,-53 -24,3 -43,1 -43,-4 0,-15 68,-21 102,-10 25,8 43,8 66,0 33,-11 102,-5 102,10 0,5 -19,7 -42,4 -63,-6 -75,6 -53,53 19,41 16,100 -9,149 -13,26 -13,31 1,56 18,30 87,67 173,94 95,30 168,75 229,142 32,35 61,63 65,63 23,0 -18,-124 -50,-151 -20,-16 -18,-32 6,-47 30,-19 25,-38 -27,-93 -42,-45 -47,-55 -44,-90 2,-32 -2,-44 -27,-67 -42,-39 -55,-48 -93,-68 -19,-9 -29,-19 -22,-21 18,-6 105,42 138,77 25,26 30,39 28,75 -1,39 3,49 37,83 47,47 59,85 35,112 -16,17 -15,22 20,94 28,58 35,83 30,106 -9,42 -29,37 -64,-14 -54,-78 -122,-129 -223,-165 -124,-45 -173,-68 -210,-99 -20,-17 -34,-23 -43,-16 -56,41 -108,69 -178,94 -45,16 -98,35 -117,44 -46,19 -123,87 -161,142 -35,51 -55,56 -64,14 z m 562,-431 c 6,-51 -10,-99 -32,-99 -35,0 -46,118 -15,155 20,24 41,-2 47,-56 z"
       id="path162" />
    <path
       d="m 4773,6468 c -6,-7 -18,-36 -27,-64 -20,-62 -59,-92 -160,-123 -104,-32 -185,-37 -245,-15 -32,11 -54,14 -60,8 -5,-5 -16,-101 -25,-214 -9,-113 -21,-261 -26,-330 -6,-69 -21,-291 -35,-495 -14,-203 -28,-383 -30,-400 -3,-16 -2,-35 2,-42 5,-6 231,-86 503,-177 272,-92 512,-175 533,-186 38,-20 140,-28 163,-12 6,4 23,86 38,182 36,243 176,1249 176,1271 0,12 -125,112 -372,297 -440,329 -422,317 -435,300 z m 396,-316 c 342,-256 369,-278 359,-288 -7,-6 -22,5 -460,325 -208,151 -278,207 -278,223 0,20 1,20 27,3 15,-10 173,-128 352,-263 z m -52,-42 c 175,-128 327,-240 338,-251 19,-19 19,-19 -20,-19 -22,0 -69,11 -105,24 -52,19 -655,264 -815,332 -37,15 -38,17 -18,25 17,6 42,-1 100,-28 184,-84 203,-92 208,-82 4,5 -48,35 -115,66 -102,48 -119,59 -102,66 16,7 60,-13 218,-97 108,-58 203,-106 211,-106 43,0 -7,37 -159,118 -221,118 -208,108 -176,122 23,11 35,5 141,-65 104,-68 137,-82 137,-56 0,5 -50,41 -110,81 -106,70 -110,74 -93,92 9,10 22,17 29,14 7,-3 156,-109 331,-236 z m -771,116 c 25,-12 513,-213 859,-353 61,-25 113,-48 117,-51 7,-8 -135,-1318 -144,-1327 -3,-4 -21,-2 -40,3 -39,12 -932,313 -935,315 -1,2 22,319 77,1067 11,151 20,294 20,318 0,46 4,49 46,28 z"
       id="path164" />
    <path
       d="m 5120,6042 c 0,-16 212,-144 222,-134 6,6 -31,35 -96,76 -103,64 -126,75 -126,58 z"
       id="path166" />
    <path
       d="m 4465,5860 c -11,-17 -27,-352 -18,-361 17,-17 676,-240 684,-232 8,8 48,277 49,324 0,10 -23,25 -67,42 -235,90 -626,237 -633,237 -5,0 -12,-5 -15,-10 z m 115,-63 c 36,-14 133,-51 215,-82 259,-98 330,-126 338,-135 8,-7 -1,-105 -19,-232 -3,-21 -11,-38 -18,-38 -7,0 -147,47 -312,104 l -299,104 3,143 c 2,145 6,174 19,166 5,-3 37,-16 73,-30 z"
       id="path168" />
    <path
       d="m 4570,5620 c -11,-7 1,-10 40,-10 44,0 58,-4 68,-20 10,-16 23,-20 74,-20 44,0 67,-5 80,-17 10,-9 40,-20 66,-23 26,-4 55,-11 65,-15 9,-4 17,-3 17,2 0,14 -47,33 -83,33 -18,0 -41,7 -51,15 -12,9 -42,15 -76,15 -47,0 -62,4 -84,25 -29,26 -87,34 -116,15 z"
       id="path170" />
    <path
       d="m 4680,4725 c 190,-63 347,-115 349,-115 3,0 1,4 -5,9 -11,11 -657,221 -676,220 -7,0 142,-52 332,-114 z"
       id="path172" />
    <path
       d="m 6450,6463 c -14,-9 -193,-142 -397,-296 -248,-185 -373,-284 -373,-296 0,-22 140,-1028 176,-1271 15,-96 32,-178 38,-182 23,-16 125,-8 163,12 21,11 261,94 533,186 272,91 498,171 503,177 4,7 5,26 2,42 -2,17 -16,197 -30,400 -14,204 -29,426 -35,495 -5,69 -17,217 -26,330 -9,113 -20,209 -25,214 -6,6 -28,3 -60,-8 -60,-22 -141,-17 -245,15 -101,31 -140,61 -160,123 -23,70 -33,80 -64,59 z m 20,-52 c 0,-14 -79,-78 -277,-222 -439,-320 -454,-331 -461,-325 -3,4 3,15 14,25 23,23 713,541 719,541 3,0 5,-9 5,-19 z m 34,-80 c 16,-17 11,-21 -94,-91 -60,-40 -110,-76 -110,-81 0,-26 33,-12 137,56 106,70 118,76 141,65 32,-14 45,-4 -175,-122 -153,-81 -203,-118 -160,-118 8,0 103,48 211,106 158,84 202,104 218,97 17,-7 0,-18 -102,-66 -67,-31 -119,-61 -115,-66 5,-10 24,-2 208,82 58,27 83,34 100,28 20,-8 19,-10 -18,-25 -160,-68 -763,-313 -815,-332 -36,-13 -83,-24 -105,-24 -39,0 -39,0 -20,19 26,25 667,491 675,491 4,0 14,-8 24,-19 z m 456,-133 c 0,-24 9,-167 20,-318 55,-748 78,-1065 77,-1067 -3,-2 -896,-303 -935,-315 -19,-5 -37,-7 -40,-3 -9,9 -151,1319 -144,1327 4,3 57,26 117,51 369,150 834,341 855,352 43,22 50,18 50,-27 z"
       id="path174" />
    <path
       d="m 6012,5983 c -64,-40 -100,-69 -94,-75 10,-10 222,118 222,134 0,18 -29,4 -128,-59 z"
       id="path176" />
    <path
       d="m 6505,5770 c -143,-55 -297,-114 -342,-131 -57,-22 -83,-37 -83,-48 1,-47 41,-316 49,-324 8,-8 667,215 684,232 9,9 -7,344 -18,361 -3,5 -12,10 -18,9 -7,0 -129,-45 -272,-99 z m 267,-104 3,-148 -299,-104 c -165,-57 -305,-104 -312,-104 -7,0 -15,17 -18,38 -18,127 -27,225 -19,232 8,9 80,37 338,135 83,31 182,69 220,85 39,15 73,25 77,21 4,-3 9,-73 10,-155 z"
       id="path178" />
    <path
       d="m 6618,5633 c -10,-2 -18,-8 -18,-13 0,-5 -14,-19 -32,-31 -29,-21 -57,-29 -168,-47 -44,-8 -140,-62 -109,-62 8,0 30,11 49,25 19,14 46,25 60,25 59,0 146,24 178,49 19,14 46,34 60,43 26,17 18,21 -20,11 z"
       id="path180" />
    <path
       d="m 6577,4731 c -290,-96 -364,-123 -331,-120 20,1 688,227 674,228 -8,0 -163,-49 -343,-108 z"
       id="path182" />
  </g>
</svg>
