<svg width="25" height="24" viewBox="0 0 25 24" fill="none" xmlns="http://www.w3.org/2000/svg">
<path d="M3.01062 12C3.01062 13.1819 3.24341 14.3522 3.6957 15.4442C4.148 16.5361 4.81093 17.5282 5.64666 18.364C6.48239 19.1997 7.47454 19.8626 8.56647 20.3149C9.6584 20.7672 10.8287 21 12.0106 21C13.1925 21 14.3628 20.7672 15.4548 20.3149C16.5467 19.8626 17.5389 19.1997 18.3746 18.364C19.2103 17.5282 19.8732 16.5361 20.3255 15.4442C20.7778 14.3522 21.0106 13.1819 21.0106 12C21.0106 10.8181 20.7778 9.64778 20.3255 8.55585C19.8732 7.46392 19.2103 6.47177 18.3746 5.63604C17.5389 4.80031 16.5467 4.13738 15.4548 3.68508C14.3628 3.23279 13.1925 3 12.0106 3C10.8287 3 9.6584 3.23279 8.56647 3.68508C7.47454 4.13738 6.48239 4.80031 5.64666 5.63604C4.81093 6.47177 4.148 7.46392 3.6957 8.55585C3.24341 9.64778 3.01062 10.8181 3.01062 12Z" stroke="#1A1A1A" stroke-width="1.5" stroke-linecap="round" stroke-linejoin="round"/>
<path d="M9.01062 10C9.01062 10.7956 9.32669 11.5587 9.8893 12.1213C10.4519 12.6839 11.215 13 12.0106 13C12.8063 13 13.5693 12.6839 14.1319 12.1213C14.6945 11.5587 15.0106 10.7956 15.0106 10C15.0106 9.20435 14.6945 8.44129 14.1319 7.87868C13.5693 7.31607 12.8063 7 12.0106 7C11.215 7 10.4519 7.31607 9.8893 7.87868C9.32669 8.44129 9.01062 9.20435 9.01062 10Z" stroke="#1A1A1A" stroke-width="1.5" stroke-linecap="round" stroke-linejoin="round"/>
<path d="M6.17865 18.849C6.42616 18.0252 6.93262 17.3032 7.6229 16.79C8.31317 16.2768 9.1505 15.9997 10.0106 16H14.0106C14.8719 15.9997 15.7103 16.2774 16.401 16.7918C17.0918 17.3062 17.5981 18.0298 17.8446 18.855" stroke="#1A1A1A" stroke-width="1.5" stroke-linecap="round" stroke-linejoin="round"/>
</svg>
